<?xml version="1.0" encoding="UTF-8" standalone="yes"?>
<svg width="256" height="256" viewBox="0 0 256 256" fill="none" version="1.2" baseProfile="tiny-ps" xmlns="http://www.w3.org/2000/svg">
  <title>Osec</title>
  <g>
    <path d="M226.683 202.338C214.759 214.735 200.203 224.502 184.008 230.973C146.725 245.58 112.939 237.148 100.832 233.401C90.2925 230.137 71.1075 223.955 54.3536 206.492C39.6946 191.209 34.4676 175.201 32.1078 167.687C23.263 139.557 28.7398 115.103 32.1869 103.67C32.1869 103.926 32.0152 105.892 31.8647 109.114C31.3573 120.244 30.5276 143.779 42.3548 166.701C46.2588 174.269 54.8538 188.193 72.5877 200.613C85.5756 210.361 100.737 217.057 116.872 220.171C133.006 223.284 149.671 222.73 165.545 218.553C177.272 215.724 197.659 209.073 215.957 192.678C223.412 185.95 229.905 178.293 235.264 169.909C238.967 164.127 244.216 155.799 247.42 143.689C249.407 136.169 251.953 126.047 248.849 114.02C247.87 110.218 246.054 103.526 240.269 97.4605C237.123 94.1695 234.055 92.3686 230.973 90.5611C224.194 86.5866 218.381 84.9719 210.951 82.9711C204.144 81.1409 197.216 79.7576 190.214 78.8314L185.696 78.3758C189.883 85.1182 193.088 92.3854 195.22 99.9721C197.576 108.306 198.589 116.94 198.223 125.571C197.966 131.015 197.687 136.99 194.941 144.138C190.701 155.178 183.336 161.815 178.717 165.879C170.022 173.419 159.608 178.875 148.319 181.804C142.692 183.218 136.821 184.323 136.821 184.323C139.928 184.358 143.033 184.194 146.117 183.833C149.335 183.481 151.645 183.232 154.698 182.632C158.605 181.812 162.451 180.74 166.21 179.424C171.123 177.664 184.251 172.835 193.769 162.747C201.105 154.964 204.116 147.16 206.418 140.93C206.418 140.93 214.57 118.85 205.703 91.9407C209.903 97.7113 213.332 103.97 215.907 110.57C218.513 118.128 219.723 126.068 219.482 134.03C218.985 145.163 215.802 156.031 210.186 165.769C204.168 175.93 195.859 184.654 185.874 191.299C163.743 206.147 140.783 205.967 135.105 205.788C127.59 205.546 106.467 204.581 87.2961 189.484C61.2467 168.964 59.638 139.039 59.4662 134.223C59.2658 128.772 58.6865 91.8925 90.0208 71.4347C116.063 54.4332 145.523 61.9268 149.957 63.1547L141.169 82.1359L143.893 84.7444L155.685 63.0377C154.478 70.2686 153.267 77.5043 152.052 84.7444L155.685 83.0058L160.54 64.5694C163.028 65.3765 176.221 69.3992 187.469 63.0377C193.561 59.1617 198.518 53.8395 201.863 47.582C201.863 47.5338 202.578 46.243 203.508 44.5044C203.965 43.6627 204.587 42.4759 205.324 41.0547C202.271 40.0954 199.839 39.3918 198.13 38.9087C197.223 38.6536 196.164 38.3638 194.176 37.7978L190.072 36.6251C189.471 36.2937 188.534 35.7623 187.404 35.0793C176.914 28.7589 175.999 25.261 168.405 20.5276C163.34 17.4576 157.839 15.1166 152.074 13.5794C147.472 12.182 142.74 11.2271 137.944 10.7298C137.944 10.7298 135.427 10.4262 133.253 10.24C129.578 9.91562 122.219 9.95706 112.752 10.647C111.498 7.11091 108.981 4.12062 105.652 2.21079C102.322 0.301025 98.3974 -0.403647 94.5787 0.22276C90.7606 0.849167 87.2972 2.76581 84.8089 5.62995C82.3205 8.49414 80.9694 12.1192 80.9964 15.8565C66.9975 21.5155 54.1089 29.4506 42.8914 39.316C4.52821 73.1528 0.659728 117.691 0.25215 123.507C-0.298453 131.318 -2.39354 172.179 27.4673 208.582C68.49 258.572 137.315 260.552 169.292 252.293C179.757 249.46 189.814 245.378 199.232 240.142C212.761 232.038 224.483 221.415 233.711 208.893C237.59 203.31 240.979 197.425 243.844 191.299C246.303 186.132 248.451 180.833 250.28 175.429C251.988 170.601 253.368 165.671 254.413 160.67C255.139 157.342 255.669 153.976 256 150.589C256 150.589 245.875 182.467 226.683 202.338ZM153.604 31.4774C154.408 30.7012 155.498 30.2641 156.635 30.263C157.165 30.2571 157.69 30.3519 158.181 30.5425C158.672 30.7332 159.119 31.0159 159.496 31.3739C159.868 31.7298 160.162 32.1534 160.362 32.6203C160.562 33.0871 160.664 33.5876 160.661 34.0924C160.66 34.6335 160.547 35.1687 160.33 35.6675C160.113 36.1658 159.795 36.6181 159.395 36.9972C158.626 37.7545 157.58 38.1883 156.481 38.2067C155.383 38.2246 154.321 37.8249 153.525 37.0942C153.149 36.7329 152.852 36.3029 152.652 35.8284C152.451 35.3545 152.352 34.8458 152.359 34.334C152.368 33.261 152.815 32.2341 153.604 31.4774Z"/>
  </g>
  <defs>
</defs>
  <style>
    /* Amber on dark backgrounds; the customer portal's nav is var(--bg)
       which is near-black. Black-on-black logos previously rendered
       invisible — switching to the Jelleo amber accent keeps the
       OtterSec wordmark visible on every theme variant. */
    path {
      fill: #f5b800;
    }
  </style>
</svg>